<?xml version="1.0" encoding="UTF-8"?>
<!-- Generator: Adobe Illustrator 16.0.0, SVG Export Plug-In . SVG Version: 6.00 Build 0)  -->
<!DOCTYPE svg PUBLIC "-//W3C//DTD SVG 1.1//EN" "http://www.w3.org/Graphics/SVG/1.1/DTD/svg11.dtd">
<svg version="1.1" id="Layer_1" xmlns="http://www.w3.org/2000/svg" xmlns:xlink="http://www.w3.org/1999/xlink" x="0px" y="0px" width="256px" height="256px" viewBox="0 0 256 256" enable-background="new 0 0 256 256" xml:space="preserve">
<rect fill="#A05C94" width="256" height="256"/>
<polygon opacity="0.7" fill="#73467A" points="193.523,160.944 62.477,160.944 62.477,17.733 0,80.334 0,256 99,256 "/>
<path opacity="0.7" fill-rule="evenodd" clip-rule="evenodd" fill="#73467A" d="M79.252,185.664L9.625,256H152.43  c0,0,14.562-13.868,22.447-20.938c-14.986,0.725-92.784,4.26-94.959-4.441C75.835,214.291,79.252,185.664,79.252,185.664z"/>
<g>
	<g>
		<path fill="#9B5C8F" d="M125.404,235.489H89.123c-6.111,0-11.083-4.973-11.083-11.084V194.71    c-0.024-2.928,1.112-5.709,3.199-7.812c2.093-2.11,4.879-3.271,7.845-3.271h77.794c6.112,0,11.084,4.972,11.084,11.083v29.695    c0,6.111-4.972,11.084-11.084,11.084h-24.659l4.95,12.117L125.404,235.489z"/>
		<path fill="#FFFFFF" d="M166.877,185.802c4.924,0,8.909,3.984,8.909,8.908v29.695c0,4.923-3.985,8.908-8.909,8.908h-27.897    l3.83,9.377l-16.841-9.377H89.123c-4.923,0-8.908-3.985-8.908-8.908V194.71c-0.04-4.884,3.946-8.908,8.869-8.908H166.877     M166.877,181.451H89.083c-3.551,0-6.885,1.391-9.39,3.915c-2.499,2.519-3.858,5.849-3.83,9.379v29.66    c0,7.312,5.948,13.26,13.259,13.26h35.716l15.855,8.827l10.832,6.031l-4.688-11.478l-1.382-3.381h21.421    c7.312,0,13.26-5.948,13.26-13.26V194.71C180.137,187.399,174.188,181.451,166.877,181.451L166.877,181.451z"/>
	</g>
	<path fill="#FFFFFF" d="M84.981,193.889c0.547-0.742,1.367-1.133,2.461-1.211c1.993-0.156,3.125,0.781,3.4,2.814   c1.209,8.166,2.539,15.081,3.946,20.746l8.556-16.293c0.782-1.485,1.759-2.267,2.932-2.344c1.719-0.118,2.773,0.977,3.203,3.282   c0.976,5.196,2.228,9.611,3.713,13.362c1.015-9.924,2.734-17.076,5.156-21.49c0.588-1.095,1.447-1.642,2.58-1.718   c0.899-0.08,1.72,0.193,2.461,0.779c0.743,0.588,1.133,1.329,1.212,2.229c0.038,0.701-0.079,1.288-0.392,1.875   c-1.523,2.812-2.772,7.54-3.79,14.104c-0.977,6.368-1.33,11.332-1.095,14.887c0.078,0.977-0.077,1.837-0.469,2.579   c-0.468,0.859-1.169,1.329-2.07,1.406c-1.016,0.078-2.071-0.392-3.086-1.447c-3.634-3.711-6.526-9.26-8.636-16.645   c-2.54,5.003-4.414,8.752-5.625,11.252c-2.306,4.418-4.26,6.685-5.901,6.801c-1.055,0.078-1.952-0.82-2.735-2.694   c-1.992-5.119-4.141-15.006-6.445-29.658C84.239,195.492,84.434,194.593,84.981,193.889z"/>
	<path fill="#FFFFFF" d="M168.986,200.023c-1.404-2.461-3.477-3.945-6.251-4.531c-0.742-0.157-1.444-0.236-2.109-0.236   c-3.752,0-6.798,1.954-9.182,5.86c-2.033,3.323-3.048,6.996-3.048,11.021c0,3.008,0.624,5.587,1.874,7.735   c1.408,2.463,3.48,3.947,6.252,4.533c0.743,0.155,1.446,0.235,2.111,0.235c3.789,0,6.837-1.955,9.182-5.861   c2.031-3.359,3.049-7.033,3.049-11.059C170.864,204.673,170.239,202.133,168.986,200.023L168.986,200.023z M164.065,210.848   c-0.548,2.579-1.525,4.493-2.971,5.781c-1.133,1.017-2.188,1.447-3.166,1.252c-0.938-0.196-1.719-1.016-2.305-2.54   c-0.468-1.212-0.701-2.423-0.701-3.557c0-0.978,0.077-1.953,0.272-2.852c0.351-1.602,1.015-3.165,2.07-4.651   c1.29-1.914,2.657-2.694,4.063-2.421c0.939,0.194,1.72,1.017,2.307,2.54c0.468,1.21,0.703,2.423,0.703,3.555   C164.339,208.971,164.222,209.947,164.065,210.848L164.065,210.848z"/>
	<path fill="#FFFFFF" d="M144.489,200.023c-1.407-2.461-3.516-3.945-6.252-4.531c-0.742-0.157-1.446-0.236-2.111-0.236   c-3.75,0-6.798,1.954-9.181,5.86c-2.031,3.323-3.047,6.996-3.047,11.021c0,3.008,0.625,5.587,1.877,7.735   c1.404,2.463,3.476,3.947,6.25,4.533c0.743,0.155,1.445,0.235,2.111,0.235c3.787,0,6.838-1.955,9.18-5.861   c2.033-3.359,3.049-7.033,3.049-11.059C146.364,204.673,145.739,202.133,144.489,200.023L144.489,200.023z M139.566,210.848   c-0.548,2.579-1.524,4.493-2.97,5.781c-1.132,1.017-2.189,1.447-3.166,1.252c-0.938-0.196-1.719-1.016-2.306-2.54   c-0.468-1.212-0.703-2.423-0.703-3.557c0-0.978,0.079-1.953,0.274-2.852c0.352-1.602,1.016-3.165,2.071-4.651   c1.289-1.914,2.656-2.694,4.063-2.421c0.938,0.194,1.721,1.017,2.305,2.54c0.469,1.21,0.703,2.423,0.703,3.555   C139.839,208.971,139.761,209.947,139.566,210.848L139.566,210.848z"/>
</g>
<g>
	<rect x="62.477" y="17.733" fill="#FFFFFF" width="131.046" height="143.211"/>
	<rect x="72.656" y="27.6" fill="#CCCCCC" width="90.141" height="5.116"/>
	<rect x="72.655" y="125.462" fill="#CCCCCC" width="110.839" height="11.031"/>
	<rect x="72.655" y="139.46" fill="#CCCCCC" width="110.839" height="11.033"/>
	<path fill-rule="evenodd" clip-rule="evenodd" fill="#A05C94" d="M104.456,112.605c0,0,10.527,3.227,23.454,3.227   c0,0,12.928,0.092,23.823-3.227l0.031-44.268l11.788,5.995c0,0,1.519,1.335,2.771-0.092c0.704-0.842,6.147-8.782,8.487-12.659   c1.104-1.862-0.085-2.005-0.085-2.005l-20.037-11.804c0,0-2.401-2.951-9.05-2.951h-5.725c0,0,0.186,11.896-12.004,11.896   c0,0-12.004-0.738-11.819-11.896h-5.725c0,0-6.833,0.553-9.234,2.951L83.479,58.074l-2.416,1.41c0,0-0.832,1.015,0.092,2.767   l8.526,12.174c0,0,1.385,1.199,2.955-0.185l11.85-5.903L104.456,112.605z"/>
</g>
</svg>